<svg xmlns="http://www.w3.org/2000/svg" xmlns:xlink="http://www.w3.org/1999/xlink" width="500" zoomAndPan="magnify" viewBox="0 0 375 374.999991" height="500" preserveAspectRatio="xMidYMid meet" version="1.0"><defs><g/><clipPath id="b3ca8edd7b"><path d="M 45.730469 148.980469 L 104.230469 148.980469 L 104.230469 208 L 45.730469 208 Z M 45.730469 148.980469 " clip-rule="nonzero"/></clipPath><clipPath id="441f12d5ad"><path d="M 58 163 L 92 163 L 92 214.980469 L 58 214.980469 Z M 58 163 " clip-rule="nonzero"/></clipPath></defs><g clip-path="url(#b3ca8edd7b)"><path fill="#1ac2ea" d="M 82.652344 201.730469 C 82.507812 202.183594 82.433594 202.660156 82.433594 203.160156 C 82.433594 205.789062 84.558594 207.921875 87.183594 207.921875 C 88.570312 207.921875 89.820312 207.328125 90.6875 206.378906 C 91.152344 205.871094 91.507812 205.261719 91.722656 204.59375 C 91.863281 204.140625 91.941406 203.660156 91.941406 203.160156 C 91.941406 200.535156 89.816406 198.398438 87.1875 198.398438 C 85.804688 198.398438 84.554688 198.996094 83.683594 199.945312 L 79.515625 197.535156 C 79.660156 197.082031 79.738281 196.601562 79.738281 196.101562 C 79.738281 193.476562 77.609375 191.339844 74.984375 191.339844 C 72.363281 191.339844 70.230469 193.472656 70.230469 196.101562 C 70.230469 196.601562 70.308594 197.082031 70.453125 197.535156 L 66.285156 199.945312 C 65.414062 198.996094 64.167969 198.398438 62.78125 198.398438 C 60.15625 198.398438 58.027344 200.53125 58.027344 203.160156 C 58.027344 203.660156 58.105469 204.140625 58.246094 204.59375 C 58.457031 205.261719 58.8125 205.871094 59.277344 206.378906 C 60.144531 207.328125 61.394531 207.921875 62.78125 207.921875 C 65.40625 207.921875 67.535156 205.792969 67.535156 203.160156 C 67.535156 202.660156 67.457031 202.183594 67.316406 201.730469 L 71.484375 199.320312 C 72.355469 200.269531 73.597656 200.863281 74.988281 200.863281 C 76.371094 200.863281 77.621094 200.269531 78.492188 199.320312 L 82.660156 201.730469 Z M 70.230469 153.742188 C 70.230469 151.117188 72.359375 148.980469 74.984375 148.980469 C 77.605469 148.980469 79.738281 151.113281 79.738281 153.742188 C 79.738281 154.246094 79.660156 154.722656 79.515625 155.175781 L 83.683594 157.585938 C 84.554688 156.636719 85.800781 156.039062 87.1875 156.039062 C 89.8125 156.039062 91.941406 158.171875 91.941406 160.800781 C 91.941406 161.300781 91.863281 161.78125 91.722656 162.234375 L 95.890625 164.644531 C 96.210938 164.292969 96.585938 163.988281 97.015625 163.738281 C 97.445312 163.488281 97.902344 163.316406 98.363281 163.210938 C 99.050781 163.0625 99.753906 163.066406 100.421875 163.210938 C 101.679688 163.492188 102.816406 164.277344 103.507812 165.480469 C 104.203125 166.683594 104.3125 168.0625 103.921875 169.292969 C 103.714844 169.949219 103.367188 170.558594 102.894531 171.078125 C 102.574219 171.425781 102.195312 171.730469 101.765625 171.984375 C 101.335938 172.234375 100.882812 172.40625 100.417969 172.507812 L 100.417969 177.328125 C 101.675781 177.609375 102.8125 178.394531 103.503906 179.597656 C 104.816406 181.875 104.035156 184.785156 101.761719 186.101562 C 101.332031 186.351562 100.878906 186.523438 100.414062 186.625 L 100.414062 191.445312 C 100.878906 191.550781 101.328125 191.722656 101.761719 191.972656 C 104.035156 193.285156 104.816406 196.203125 103.503906 198.476562 C 102.808594 199.679688 101.671875 200.464844 100.417969 200.742188 C 99.75 200.894531 99.042969 200.898438 98.363281 200.742188 C 97.898438 200.640625 97.445312 200.46875 97.011719 200.214844 C 94.738281 198.902344 93.960938 195.988281 95.277344 193.714844 C 95.96875 192.511719 97.109375 191.726562 98.363281 191.445312 L 98.363281 186.621094 C 97.105469 186.34375 95.96875 185.558594 95.277344 184.355469 C 93.964844 182.078125 94.742188 179.167969 97.015625 177.851562 C 97.445312 177.601562 97.902344 177.429688 98.363281 177.324219 L 98.363281 172.503906 C 97.109375 172.226562 95.972656 171.441406 95.28125 170.238281 C 94.585938 169.035156 94.476562 167.65625 94.863281 166.425781 L 90.695312 164.015625 C 89.828125 164.964844 88.582031 165.5625 87.191406 165.5625 C 84.570312 165.5625 82.441406 163.429688 82.441406 160.796875 C 82.441406 160.296875 82.515625 159.820312 82.660156 159.367188 L 78.492188 156.957031 C 77.621094 157.90625 76.375 158.503906 74.988281 158.503906 C 73.601562 158.503906 72.355469 157.90625 71.484375 156.957031 L 67.316406 159.367188 C 67.457031 159.820312 67.535156 160.296875 67.535156 160.796875 C 67.535156 163.425781 65.410156 165.5625 62.78125 165.5625 C 61.398438 165.5625 60.148438 164.964844 59.277344 164.015625 L 55.109375 166.425781 C 55.496094 167.65625 55.386719 169.035156 54.695312 170.238281 C 54 171.441406 52.863281 172.226562 51.609375 172.503906 L 51.609375 177.324219 C 52.074219 177.429688 52.523438 177.601562 52.957031 177.851562 C 55.230469 179.167969 56.011719 182.082031 54.699219 184.355469 C 54.003906 185.558594 52.867188 186.34375 51.613281 186.621094 L 51.613281 191.445312 C 52.871094 191.726562 54.003906 192.511719 54.699219 193.714844 C 56.011719 195.992188 55.230469 198.902344 52.960938 200.214844 C 52.53125 200.46875 52.078125 200.640625 51.613281 200.742188 C 50.925781 200.894531 50.226562 200.890625 49.558594 200.742188 C 48.300781 200.464844 47.164062 199.679688 46.472656 198.476562 C 45.160156 196.199219 45.941406 193.285156 48.214844 191.972656 C 48.644531 191.722656 49.097656 191.550781 49.5625 191.445312 L 49.5625 186.625 C 49.097656 186.523438 48.648438 186.351562 48.214844 186.101562 C 45.941406 184.785156 45.160156 181.871094 46.472656 179.597656 C 47.167969 178.394531 48.304688 177.609375 49.558594 177.328125 L 49.558594 172.507812 C 49.09375 172.40625 48.644531 172.234375 48.210938 171.984375 C 47.78125 171.730469 47.402344 171.425781 47.082031 171.078125 C 46.609375 170.558594 46.257812 169.949219 46.054688 169.292969 C 45.667969 168.0625 45.777344 166.683594 46.46875 165.480469 C 47.164062 164.277344 48.300781 163.492188 49.554688 163.210938 C 50.222656 163.066406 50.925781 163.058594 51.609375 163.210938 C 52.074219 163.316406 52.523438 163.488281 52.957031 163.738281 C 53.386719 163.988281 53.765625 164.292969 54.085938 164.644531 L 58.253906 162.234375 C 58.109375 161.78125 58.035156 161.300781 58.035156 160.800781 C 58.035156 158.175781 60.160156 156.039062 62.785156 156.039062 C 64.171875 156.039062 65.421875 156.636719 66.289062 157.585938 L 70.460938 155.175781 C 70.316406 154.722656 70.238281 154.246094 70.238281 153.742188 Z M 70.230469 153.742188 " fill-opacity="1" fill-rule="evenodd"/></g><g clip-path="url(#441f12d5ad)"><path fill="#212121" d="M 74.980469 214.980469 C 72.359375 214.980469 70.226562 212.851562 70.226562 210.21875 C 70.226562 207.589844 72.355469 205.457031 74.980469 205.457031 C 77.601562 205.457031 79.734375 207.589844 79.734375 210.21875 C 79.734375 212.847656 77.605469 214.980469 74.980469 214.980469 Z M 74.980469 186.742188 C 77.601562 186.742188 79.734375 184.613281 79.734375 181.980469 C 79.734375 181.480469 79.65625 181.003906 79.511719 180.550781 L 83.679688 178.140625 C 84.042969 178.535156 84.457031 178.851562 84.90625 179.101562 L 84.910156 179.105469 L 84.914062 179.105469 L 84.925781 179.109375 C 85.308594 179.316406 85.71875 179.476562 86.15625 179.570312 L 86.15625 184.390625 C 85.695312 184.496094 85.242188 184.667969 84.808594 184.917969 C 82.535156 186.230469 81.757812 189.148438 83.066406 191.421875 C 83.761719 192.625 84.902344 193.410156 86.152344 193.6875 C 86.820312 193.835938 87.527344 193.84375 88.210938 193.6875 C 88.671875 193.585938 89.125 193.414062 89.558594 193.160156 C 91.832031 191.847656 92.609375 188.933594 91.296875 186.660156 C 90.605469 185.457031 89.464844 184.671875 88.214844 184.390625 L 88.214844 179.570312 C 88.675781 179.46875 89.128906 179.296875 89.5625 179.042969 C 90.421875 178.546875 91.066406 177.824219 91.46875 176.988281 L 91.480469 176.964844 C 91.488281 176.941406 91.5 176.914062 91.515625 176.890625 L 91.542969 176.824219 L 91.554688 176.796875 C 91.570312 176.765625 91.582031 176.738281 91.59375 176.703125 L 91.597656 176.691406 C 91.707031 176.417969 91.789062 176.128906 91.847656 175.832031 L 91.851562 175.804688 L 91.867188 175.730469 L 91.878906 175.671875 L 91.886719 175.628906 C 91.890625 175.601562 91.894531 175.566406 91.902344 175.539062 L 91.902344 175.523438 C 91.980469 174.890625 91.9375 174.234375 91.753906 173.601562 L 91.753906 173.59375 L 91.746094 173.574219 L 91.738281 173.550781 L 91.726562 173.511719 L 91.71875 173.488281 L 91.699219 173.433594 L 91.691406 173.40625 C 91.5625 173.019531 91.382812 172.65625 91.167969 172.320312 L 91.164062 172.3125 L 91.144531 172.289062 L 91.140625 172.285156 C 90.742188 171.679688 90.222656 171.195312 89.636719 170.839844 C 88.949219 170.425781 88.148438 170.179688 87.289062 170.160156 L 87.183594 170.160156 C 87.144531 170.160156 87.105469 170.160156 87.0625 170.160156 C 86.90625 170.164062 86.746094 170.175781 86.585938 170.199219 L 86.570312 170.199219 C 86.539062 170.203125 86.503906 170.207031 86.46875 170.210938 L 86.449219 170.214844 C 86.425781 170.21875 86.398438 170.222656 86.371094 170.230469 L 86.3125 170.242188 L 86.261719 170.253906 C 85.5 170.402344 84.804688 170.734375 84.222656 171.203125 L 84.191406 171.222656 L 84.089844 171.308594 L 84.058594 171.335938 C 84.039062 171.351562 84.015625 171.371094 83.992188 171.394531 L 83.980469 171.40625 C 83.785156 171.582031 83.605469 171.777344 83.445312 171.980469 L 83.429688 171.996094 C 83.414062 172.019531 83.394531 172.046875 83.375 172.066406 L 83.347656 172.109375 L 83.3125 172.15625 C 83.296875 172.179688 83.277344 172.207031 83.261719 172.234375 L 83.253906 172.242188 C 82.734375 173.007812 82.429688 173.929688 82.429688 174.925781 C 82.429688 175.007812 82.433594 175.085938 82.4375 175.164062 L 82.4375 175.179688 C 82.4375 175.210938 82.441406 175.242188 82.445312 175.273438 L 82.445312 175.289062 C 82.445312 175.320312 82.445312 175.355469 82.449219 175.386719 L 82.449219 175.402344 C 82.484375 175.734375 82.550781 176.050781 82.644531 176.359375 L 78.476562 178.769531 C 77.609375 177.820312 76.363281 177.222656 74.972656 177.222656 C 73.589844 177.222656 72.339844 177.820312 71.46875 178.769531 L 67.300781 176.359375 C 67.394531 176.054688 67.460938 175.734375 67.496094 175.402344 L 67.496094 175.386719 C 67.5 175.355469 67.503906 175.320312 67.503906 175.289062 L 67.503906 175.273438 C 67.507812 175.242188 67.507812 175.210938 67.511719 175.179688 L 67.511719 175.164062 C 67.511719 175.089844 67.515625 175.007812 67.515625 174.925781 C 67.515625 173.933594 67.210938 173.007812 66.691406 172.242188 L 66.683594 172.234375 C 66.664062 172.207031 66.648438 172.179688 66.632812 172.15625 L 66.597656 172.109375 L 66.570312 172.066406 C 66.550781 172.046875 66.53125 172.019531 66.515625 171.996094 L 66.5 171.980469 C 66.339844 171.777344 66.160156 171.582031 65.96875 171.40625 L 65.953125 171.394531 C 65.929688 171.375 65.910156 171.351562 65.886719 171.335938 L 65.855469 171.308594 L 65.753906 171.222656 L 65.726562 171.203125 C 65.140625 170.734375 64.441406 170.398438 63.683594 170.253906 L 63.636719 170.242188 L 63.578125 170.230469 C 63.550781 170.226562 63.523438 170.222656 63.496094 170.214844 L 63.476562 170.210938 C 63.445312 170.207031 63.40625 170.203125 63.375 170.199219 L 63.359375 170.199219 C 63.203125 170.179688 63.039062 170.164062 62.882812 170.160156 C 62.84375 170.160156 62.800781 170.160156 62.761719 170.160156 L 62.660156 170.160156 C 61.800781 170.179688 61 170.425781 60.3125 170.839844 C 59.722656 171.195312 59.207031 171.679688 58.804688 172.285156 L 58.800781 172.289062 L 58.785156 172.3125 L 58.78125 172.320312 C 58.558594 172.65625 58.382812 173.019531 58.253906 173.40625 L 58.230469 173.488281 L 58.222656 173.511719 L 58.210938 173.550781 L 58.203125 173.574219 L 58.195312 173.59375 L 58.195312 173.601562 C 58.011719 174.234375 57.96875 174.890625 58.050781 175.523438 L 58.050781 175.539062 C 58.050781 175.566406 58.054688 175.601562 58.058594 175.628906 L 58.066406 175.671875 L 58.078125 175.730469 L 58.09375 175.804688 L 58.097656 175.832031 C 58.15625 176.128906 58.238281 176.417969 58.351562 176.691406 L 58.355469 176.703125 C 58.363281 176.734375 58.378906 176.765625 58.390625 176.796875 L 58.402344 176.824219 L 58.429688 176.890625 C 58.441406 176.917969 58.453125 176.945312 58.46875 176.964844 L 58.480469 176.988281 C 58.878906 177.820312 59.523438 178.546875 60.382812 179.042969 C 60.816406 179.296875 61.269531 179.46875 61.734375 179.570312 L 61.734375 184.390625 C 60.476562 184.671875 59.339844 185.457031 58.648438 186.660156 C 57.335938 188.9375 58.113281 191.847656 60.386719 193.160156 C 60.816406 193.414062 61.273438 193.585938 61.738281 193.6875 C 62.421875 193.839844 63.125 193.835938 63.792969 193.6875 C 65.050781 193.410156 66.1875 192.625 66.878906 191.421875 C 68.1875 189.144531 67.410156 186.230469 65.136719 184.917969 C 64.707031 184.667969 64.253906 184.496094 63.789062 184.390625 L 63.789062 179.570312 C 64.222656 179.476562 64.636719 179.316406 65.019531 179.109375 L 65.03125 179.105469 L 65.035156 179.105469 L 65.039062 179.101562 C 65.488281 178.851562 65.90625 178.53125 66.265625 178.140625 L 70.433594 180.550781 C 70.289062 181.003906 70.214844 181.480469 70.214844 181.980469 C 70.214844 184.609375 72.339844 186.742188 74.964844 186.742188 Z M 74.980469 172.621094 C 72.359375 172.621094 70.226562 170.492188 70.226562 167.859375 C 70.226562 165.234375 72.355469 163.097656 74.980469 163.097656 C 77.601562 163.097656 79.734375 165.230469 79.734375 167.859375 C 79.734375 170.488281 77.605469 172.621094 74.980469 172.621094 Z M 74.980469 172.621094 " fill-opacity="1" fill-rule="evenodd"/></g><g fill="#000000" fill-opacity="1"><g transform="translate(114.00587, 184.42526)"><g><path d="M 20.921875 0 L 19.359375 -4.734375 L 9.234375 -4.734375 L 7.671875 0 L 0.359375 0 L 10.15625 -28.265625 L 18.515625 -28.265625 L 28.265625 0 Z M 10.96875 -9.953125 L 17.625 -9.953125 L 14.296875 -20 Z M 10.96875 -9.953125 "/></g></g></g><g fill="#000000" fill-opacity="1"><g transform="translate(141.627906, 184.42526)"><g><path d="M 12.53125 -5.828125 L 14.984375 -5.828125 L 14.984375 0 L 11.484375 0 C 8.960938 0 7.015625 -0.550781 5.640625 -1.65625 C 4.265625 -2.769531 3.578125 -4.679688 3.578125 -7.390625 L 3.578125 -16.703125 L 1.484375 -16.703125 L 1.484375 -22.40625 L 3.578125 -22.40625 L 3.578125 -27.875 L 10.4375 -27.875 L 10.4375 -22.40625 L 14.9375 -22.40625 L 14.9375 -16.703125 L 10.4375 -16.703125 L 10.4375 -7.390625 C 10.4375 -6.347656 11.132812 -5.828125 12.53125 -5.828125 Z M 12.53125 -5.828125 "/></g></g></g><g fill="#000000" fill-opacity="1"><g transform="translate(157.285715, 184.42526)"><g><path d="M 16.453125 -7.015625 C 17.367188 -7.984375 17.828125 -9.378906 17.828125 -11.203125 C 17.828125 -13.023438 17.359375 -14.410156 16.421875 -15.359375 C 15.484375 -16.304688 14.367188 -16.78125 13.078125 -16.78125 C 11.796875 -16.78125 10.691406 -16.304688 9.765625 -15.359375 C 8.847656 -14.410156 8.390625 -13.023438 8.390625 -11.203125 C 8.390625 -9.378906 8.863281 -7.984375 9.8125 -7.015625 C 10.769531 -6.054688 11.890625 -5.578125 13.171875 -5.578125 C 14.453125 -5.578125 15.546875 -6.054688 16.453125 -7.015625 Z M 4.796875 -2.890625 C 2.535156 -5.003906 1.40625 -7.785156 1.40625 -11.234375 C 1.40625 -14.691406 2.53125 -17.457031 4.78125 -19.53125 C 7.03125 -21.601562 9.8125 -22.640625 13.125 -22.640625 C 16.445312 -22.640625 19.222656 -21.601562 21.453125 -19.53125 C 23.691406 -17.457031 24.8125 -14.691406 24.8125 -11.234375 C 24.8125 -7.785156 23.703125 -5.003906 21.484375 -2.890625 C 19.265625 -0.773438 16.492188 0.28125 13.171875 0.28125 C 9.847656 0.28125 7.054688 -0.773438 4.796875 -2.890625 Z M 4.796875 -2.890625 "/></g></g></g><g fill="#000000" fill-opacity="1"><g transform="translate(182.498845, 184.42526)"><g><path d="M 9.875 -22.40625 L 9.875 -19.109375 C 11.289062 -21.460938 13.554688 -22.640625 16.671875 -22.640625 C 18.328125 -22.640625 19.800781 -22.265625 21.09375 -21.515625 C 22.394531 -20.773438 23.410156 -19.707031 24.140625 -18.3125 C 24.960938 -19.625 26.035156 -20.671875 27.359375 -21.453125 C 28.691406 -22.242188 30.171875 -22.640625 31.796875 -22.640625 C 34.535156 -22.640625 36.707031 -21.796875 38.3125 -20.109375 C 39.914062 -18.429688 40.71875 -16.09375 40.71875 -13.09375 L 40.71875 0 L 33.890625 0 L 33.890625 -12.171875 C 33.890625 -13.609375 33.507812 -14.722656 32.75 -15.515625 C 31.988281 -16.304688 30.9375 -16.703125 29.59375 -16.703125 C 28.257812 -16.703125 27.207031 -16.304688 26.4375 -15.515625 C 25.675781 -14.722656 25.296875 -13.609375 25.296875 -12.171875 L 25.296875 0 L 18.46875 0 L 18.46875 -12.171875 C 18.46875 -13.609375 18.085938 -14.722656 17.328125 -15.515625 C 16.566406 -16.304688 15.515625 -16.703125 14.171875 -16.703125 C 12.835938 -16.703125 11.785156 -16.304688 11.015625 -15.515625 C 10.253906 -14.722656 9.875 -13.609375 9.875 -12.171875 L 9.875 0 L 3.015625 0 L 3.015625 -22.40625 Z M 9.875 -22.40625 "/></g></g></g><g fill="#000000" fill-opacity="1"><g transform="translate(225.015941, 184.42526)"><g><path d="M 9.265625 -24.9375 C 8.492188 -24.15625 7.546875 -23.765625 6.421875 -23.765625 C 5.296875 -23.765625 4.34375 -24.15625 3.5625 -24.9375 C 2.789062 -25.71875 2.40625 -26.675781 2.40625 -27.8125 C 2.40625 -28.945312 2.789062 -29.898438 3.5625 -30.671875 C 4.34375 -31.453125 5.296875 -31.84375 6.421875 -31.84375 C 7.546875 -31.84375 8.492188 -31.453125 9.265625 -30.671875 C 10.046875 -29.898438 10.4375 -28.945312 10.4375 -27.8125 C 10.4375 -26.675781 10.046875 -25.71875 9.265625 -24.9375 Z M 3.015625 0 L 3.015625 -22.40625 L 9.875 -22.40625 L 9.875 0 Z M 3.015625 0 "/></g></g></g><g fill="#000000" fill-opacity="1"><g transform="translate(236.899803, 184.42526)"><g><path d="M 4.46875 -2.84375 C 2.394531 -4.9375 1.359375 -7.722656 1.359375 -11.203125 C 1.359375 -14.679688 2.394531 -17.457031 4.46875 -19.53125 C 6.550781 -21.601562 9.238281 -22.640625 12.53125 -22.640625 C 15.257812 -22.640625 17.570312 -21.960938 19.46875 -20.609375 C 21.375 -19.265625 22.632812 -17.332031 23.25 -14.8125 L 15.828125 -14.8125 C 15.179688 -16.15625 14.128906 -16.828125 12.671875 -16.828125 C 11.210938 -16.828125 10.128906 -16.3125 9.421875 -15.28125 C 8.710938 -14.25 8.359375 -12.890625 8.359375 -11.203125 C 8.359375 -9.515625 8.710938 -8.15625 9.421875 -7.125 C 10.128906 -6.09375 11.164062 -5.578125 12.53125 -5.578125 C 13.382812 -5.578125 14.050781 -5.722656 14.53125 -6.015625 C 15.019531 -6.316406 15.453125 -6.84375 15.828125 -7.59375 L 23.25 -7.59375 C 22.632812 -5.175781 21.363281 -3.257812 19.4375 -1.84375 C 17.507812 -0.425781 15.207031 0.28125 12.53125 0.28125 C 9.238281 0.28125 6.550781 -0.757812 4.46875 -2.84375 Z M 4.46875 -2.84375 "/></g></g></g><g fill="#1ac2ea" fill-opacity="1"><g transform="translate(151.145585, 208.405306)"><g><path d="M 3.875 -7.84375 C 3.269531 -7.84375 2.941406 -7.519531 2.890625 -6.875 L 0.703125 -6.875 C 0.703125 -7.789062 1 -8.5 1.59375 -9 C 2.1875 -9.5 2.972656 -9.75 3.953125 -9.75 C 4.929688 -9.75 5.691406 -9.507812 6.234375 -9.03125 C 6.773438 -8.550781 7.046875 -7.941406 7.046875 -7.203125 C 7.046875 -6.609375 6.898438 -6.128906 6.609375 -5.765625 C 6.328125 -5.398438 6.035156 -5.15625 5.734375 -5.03125 L 5.734375 -4.984375 C 6.710938 -4.609375 7.203125 -3.851562 7.203125 -2.71875 C 7.203125 -1.851562 6.914062 -1.175781 6.34375 -0.6875 C 5.78125 -0.195312 4.992188 0.046875 3.984375 0.046875 C 2.972656 0.046875 2.144531 -0.207031 1.5 -0.71875 C 0.863281 -1.238281 0.546875 -2.007812 0.546875 -3.03125 L 2.734375 -3.03125 C 2.734375 -2.644531 2.835938 -2.335938 3.046875 -2.109375 C 3.265625 -1.890625 3.554688 -1.78125 3.921875 -1.78125 C 4.296875 -1.78125 4.578125 -1.878906 4.765625 -2.078125 C 4.953125 -2.285156 5.046875 -2.570312 5.046875 -2.9375 C 5.046875 -3.3125 4.914062 -3.585938 4.65625 -3.765625 C 4.394531 -3.953125 3.96875 -4.046875 3.375 -4.046875 L 2.953125 -4.046875 L 2.953125 -5.875 L 3.375 -5.875 C 4.363281 -5.875 4.859375 -6.222656 4.859375 -6.921875 C 4.859375 -7.203125 4.769531 -7.425781 4.59375 -7.59375 C 4.414062 -7.757812 4.175781 -7.84375 3.875 -7.84375 Z M 3.875 -7.84375 "/></g></g></g><g fill="#1ac2ea" fill-opacity="1"><g transform="translate(159.074899, 208.405306)"><g><path d="M 3.21875 -1.703125 L 4.21875 -1.703125 C 5.070312 -1.703125 5.742188 -1.960938 6.234375 -2.484375 C 6.722656 -3.015625 6.96875 -3.71875 6.96875 -4.59375 C 6.96875 -5.476562 6.722656 -6.179688 6.234375 -6.703125 C 5.742188 -7.234375 5.070312 -7.5 4.21875 -7.5 L 3.21875 -7.5 Z M 4.21875 -9.203125 C 5.6875 -9.203125 6.890625 -8.773438 7.828125 -7.921875 C 8.773438 -7.066406 9.25 -5.957031 9.25 -4.59375 C 9.25 -3.238281 8.773438 -2.132812 7.828125 -1.28125 C 6.890625 -0.425781 5.6875 0 4.21875 0 L 0.984375 0 L 0.984375 -9.203125 Z M 4.21875 -9.203125 "/></g></g></g><g fill="#1ac2ea" fill-opacity="1"><g transform="translate(168.760455, 208.405306)"><g/></g></g><g fill="#1ac2ea" fill-opacity="1"><g transform="translate(172.692344, 208.405306)"><g><path d="M 3.359375 0 L 0.09375 -9.203125 L 2.484375 -9.203125 L 4.765625 -2.1875 L 7.046875 -9.203125 L 9.421875 -9.203125 L 6.15625 0 Z M 3.359375 0 "/></g></g></g><g fill="#1ac2ea" fill-opacity="1"><g transform="translate(182.207523, 208.405306)"><g><path d="M 0.984375 0 L 0.984375 -9.203125 L 3.21875 -9.203125 L 3.21875 0 Z M 0.984375 0 "/></g></g></g><g fill="#1ac2ea" fill-opacity="1"><g transform="translate(186.414647, 208.405306)"><g><path d="M 6.5625 -9.234375 L 6.5625 -7.53125 L 3.21875 -7.53125 L 3.21875 -5.546875 L 6.15625 -5.546875 L 6.15625 -3.84375 L 3.21875 -3.84375 L 3.21875 -1.703125 L 6.5625 -1.703125 L 6.5625 0 L 0.984375 0 L 0.984375 -9.234375 Z M 6.5625 -9.234375 "/></g></g></g><g fill="#1ac2ea" fill-opacity="1"><g transform="translate(193.911448, 208.405306)"><g><path d="M 11.203125 -9.203125 L 13.609375 -9.203125 L 11.03125 0 L 8.46875 0 L 6.859375 -5.828125 L 5.25 0 L 2.6875 0 L 0.078125 -9.203125 L 2.484375 -9.203125 L 4.078125 -2.578125 L 5.71875 -9.203125 L 8.265625 -9.203125 L 9.828125 -2.6875 Z M 11.203125 -9.203125 "/></g></g></g><g fill="#1ac2ea" fill-opacity="1"><g transform="translate(207.607536, 208.405306)"><g><path d="M 6.5625 -9.234375 L 6.5625 -7.53125 L 3.21875 -7.53125 L 3.21875 -5.546875 L 6.15625 -5.546875 L 6.15625 -3.84375 L 3.21875 -3.84375 L 3.21875 -1.703125 L 6.5625 -1.703125 L 6.5625 0 L 0.984375 0 L 0.984375 -9.234375 Z M 6.5625 -9.234375 "/></g></g></g><g fill="#1ac2ea" fill-opacity="1"><g transform="translate(215.104337, 208.405306)"><g><path d="M 3.21875 -3.578125 L 3.21875 0 L 0.984375 0 L 0.984375 -9.203125 L 4.609375 -9.203125 C 5.679688 -9.203125 6.515625 -8.925781 7.109375 -8.375 C 7.703125 -7.820312 8 -7.160156 8 -6.390625 C 8 -5.847656 7.835938 -5.320312 7.515625 -4.8125 C 7.191406 -4.3125 6.660156 -3.957031 5.921875 -3.75 L 8.1875 0 L 5.5625 0 L 3.484375 -3.578125 Z M 3.21875 -7.5 L 3.21875 -5.28125 L 4.609375 -5.28125 C 4.953125 -5.28125 5.222656 -5.378906 5.421875 -5.578125 C 5.617188 -5.785156 5.71875 -6.050781 5.71875 -6.375 C 5.71875 -6.707031 5.613281 -6.976562 5.40625 -7.1875 C 5.207031 -7.394531 4.941406 -7.5 4.609375 -7.5 Z M 3.21875 -7.5 "/></g></g></g></svg>